<?xml version="1.0" encoding="UTF-8"?>
<svg id="Ebene_1" xmlns="http://www.w3.org/2000/svg" version="1.1" viewBox="0 0 161 49">
  <!-- Generator: Adobe Illustrator 29.0.1, SVG Export Plug-In . SVG Version: 2.1.0 Build 192)  -->
  <defs>
    <style>
      .st0 {
        fill: none;
      }
    </style>
  </defs>
  <g>
    <path class="st0" d="M81.26,22.56c-3.08,0-5.58,2.5-5.58,5.58s2.5,5.58,5.58,5.58,5.58-2.5,5.58-5.58-2.5-5.58-5.58-5.58Z"/>
    <path d="M68.27,33.29c-.6.22-1.25.34-1.92.34-3.08,0-5.58-2.5-5.58-5.58s2.5-5.58,5.58-5.58c.69,0,1.34.12,1.95.35.77-1.87,1.94-3.54,3.4-4.89-1.6-.85-3.42-1.33-5.35-1.33-6.32,0-11.45,5.13-11.45,11.45s5.13,11.45,11.45,11.45c1.91,0,3.72-.47,5.3-1.3-1.46-1.36-2.62-3.03-3.38-4.9Z"/>
    <path d="M81.26,16.66c-6.32,0-11.45,5.12-11.45,11.45s5.12,11.45,11.45,11.45,11.45-5.13,11.45-11.45-5.13-11.45-11.45-11.45ZM81.26,33.72c-3.08,0-5.58-2.5-5.58-5.58s2.5-5.58,5.58-5.58,5.58,2.5,5.58,5.58-2.5,5.58-5.58,5.58Z"/>
    <path d="M109.66,28.13c0-.3,0-.59-.03-.88v1.7c.02-.27.03-.54.03-.82Z"/>
    <path d="M89.06,16.61c.93.64,1.78,1.39,2.52,2.23.46.52.88,1.08,1.26,1.66v-3.89h-3.79Z"/>
    <path d="M109.63,27.25v-10.56h-5.77v11.45c0,3.08-2.5,5.58-5.58,5.58-1.54,0-2.93-.62-3.94-1.63-.59,1.97-1.6,3.75-2.94,5.24,1.9,1.42,4.26,2.25,6.82,2.25,6.05,0,11-4.69,11.41-10.63v-1.7s0,0,0,0Z"/>
    <path d="M115.14,16.66c-1.18,0-2.32.18-3.39.51v6.46c.93-.7,2.09-1.11,3.34-1.11,3.08,0,5.58,2.5,5.58,5.58v11.45h5.92v-11.45c0-6.32-5.12-11.45-11.45-11.45Z"/>
    <path d="M108.4,37.33c-.75.84-1.6,1.59-2.52,2.23h3.79v-3.89c-.38.59-.8,1.14-1.26,1.66Z"/>
    <path d="M136.16,33.69c-3.08,0-5.58-2.5-5.58-5.58v-3.7h5.81v-5.81h-5.81v-1.95h-5.92v1.55c.9.88,1.69,1.88,2.32,2.98,1.18,2.04,1.85,4.4,1.85,6.91v8.84c1.98,1.63,4.51,2.61,7.27,2.61.78,0,1.54-.08,2.28-.23v-6.1c-.68.3-1.43.46-2.22.46Z"/>
    <path d="M152.08,16.69c-6.32,0-11.45,5.12-11.45,11.45v7.94h0s0,2.53,0,2.53c0,0,0,0,0,0v.97h5.81v-11.45c0-3.08,2.5-5.58,5.58-5.58h5.58v-5.86h-5.53Z"/>
  </g>
  <g>
    <polygon points="19.85 15.78 10 15.78 10 21.69 13.94 21.69 19.85 15.78"/>
    <path d="M25.98,21.69h7.72v-5.91h-10.87l-.64.64h0s-3.83,3.83-3.83,3.83l-1.45,1.45-2.11,2.11-.36.36-1.04,1.04h0s-.12.12-.12.12c0,0,0,0,0,0-.36.3-.69.62-1,.96-.08.08-.15.17-.22.26-.12.14-.23.28-.33.42-1.1,1.46-1.74,3.18-1.74,5.02,0,4.83,4.38,8.82,10.08,9.52.58.07,1.17.11,1.78.11s1.2-.04,1.77-.11c5.51-.67,9.79-4.42,10.07-9.03,0-.11.01-.22.01-.34v-.15c0-.16,0-.32-.01-.48-.01-.23-.04-.46-.07-.69-.26-1.71-1.06-3.28-2.27-4.59-.19-.21-.39-.41-.6-.6l-1.81-1.81h-2.09l-.98.98-.04.04-2.48,2.48,2.09,2.09.16.16c.63.67,1.01,1.51,1.01,2.43,0,2.17-2.12,3.93-4.74,3.93s-4.74-1.76-4.74-3.93c0-.91.37-1.74,1-2.41l-.13.13h0s.18-.18.18-.18c-.01.01-.02.02-.04.04,0,0-.01.01-.02.02l7.88-7.88h0"/>
  </g>
  <rect x="45.1" y="17.78" width="1.03" height="19.45"/>
</svg>